<?xml version="1.0" standalone="no"?><!DOCTYPE svg PUBLIC "-//W3C//DTD SVG 1.1//EN" "http://www.w3.org/Graphics/SVG/1.1/DTD/svg11.dtd"><svg t="1519699325694" class="icon" style="" viewBox="0 0 1024 1024" version="1.1" xmlns="http://www.w3.org/2000/svg" p-id="2556" xmlns:xlink="http://www.w3.org/1999/xlink" width="64" height="64"><defs><style type="text/css"></style></defs><path d="M524.8 884.8c33.6-33.6 65.6-65.6 97.6-97.6 11.2-11.2 25.6-17.6 40-17.6h249.6c20.8 0 38.4-17.6 38.4-38.4v-558.4c0-20.8-17.6-38.4-38.4-38.4h-803.2c-20.8 0-38.4 17.6-38.4 38.4v558.4c0 20.8 17.6 38.4 38.4 38.4h249.6c16 0 28.8 6.4 40 17.6 33.6 33.6 65.6 65.6 99.2 97.6 8 6.4 20.8 6.4 27.2 0v0zM651.2 812.8l-99.2 99.2c-22.4 22.4-59.2 22.4-81.6 0l-99.2-99.2c-3.2-3.2-8-6.4-12.8-6.4h-249.6c-41.6 0-76.8-35.2-76.8-76.8v-560c0-41.6 35.2-76.8 76.8-76.8h806.4c41.6 0 76.8 35.2 76.8 76.8v560c0 41.6-35.2 76.8-76.8 76.8h-249.6c-6.4 1.6-11.2 3.2-14.4 6.4z" p-id="2557" fill="#8a8a8a"></path><path d="M289.6 518.4c36.8 0 67.2-30.4 67.2-67.2s-30.4-67.2-67.2-67.2c-36.8 0-67.2 30.4-67.2 67.2 0 36.8 30.4 67.2 67.2 67.2v0zM289.6 422.4c16 0 28.8 12.8 28.8 28.8s-12.8 28.8-28.8 28.8c-16 0-28.8-12.8-28.8-28.8s12.8-28.8 28.8-28.8z" p-id="2558" fill="#8a8a8a"></path><path d="M734.4 518.4c36.8 0 67.2-30.4 67.2-67.2s-30.4-67.2-67.2-67.2c-36.8 0-67.2 30.4-67.2 67.2-1.6 36.8 28.8 67.2 67.2 67.2v0zM734.4 422.4c16 0 28.8 12.8 28.8 28.8s-12.8 28.8-28.8 28.8-28.8-12.8-28.8-28.8 12.8-28.8 28.8-28.8z" p-id="2559" fill="#8a8a8a"></path><path d="M512 518.4c36.8 0 67.2-30.4 67.2-67.2s-30.4-67.2-67.2-67.2c-36.8 0-67.2 30.4-67.2 67.2 0 36.8 30.4 67.2 67.2 67.2v0zM512 422.4c16 0 28.8 12.8 28.8 28.8s-12.8 28.8-28.8 28.8-28.8-12.8-28.8-28.8 12.8-28.8 28.8-28.8z" p-id="2560" fill="#8a8a8a"></path></svg>