<?xml version="1.0" standalone="no"?><!DOCTYPE svg PUBLIC "-//W3C//DTD SVG 1.1//EN" "http://www.w3.org/Graphics/SVG/1.1/DTD/svg11.dtd"><svg t="1517923322965" class="icon" style="" viewBox="0 0 1024 1024" version="1.1" xmlns="http://www.w3.org/2000/svg" p-id="577" xmlns:xlink="http://www.w3.org/1999/xlink" width="200" height="200"><defs><style type="text/css"></style></defs><path d="M491.232929 127.094475c-27.504832 1.93826-60.270655 9.414406-86.483314 20.028686-58.147799 23.351418-100.328028 60.916742-125.710004 112.142184-28.427813 57.409414-31.196756 129.309629-7.476146 189.857179 10.337386 26.397255 24.458995 49.010288 45.318364 72.730898 1.93826 2.122856 23.628312 41.534142 50.302461 91.467411 38.396007 71.531023 46.887432 88.144679 46.425941 89.990641-1.292173 4.984097-1.845962 16.613657-1.107577 26.766447 0.830683 13.198627 5.630184 39.780478 8.583723 48.456499 4.522607 12.829435 13.752416 23.166822 25.65887 28.612409 10.983473 5.076395 39.872776 8.952915 64.88556 8.768319 8.583723-0.092298 17.998128 0.276894 21.043965 0.830683 10.891175 1.93826 40.241969 3.138135 47.348922 2.030558 7.660742-1.384471 16.059868-5.076395 20.951667-9.322107 10.337386-9.137511 18.644215-27.966322 24.643591-56.301837 3.507328-16.244464 4.614905-36.919237 2.39975-44.949172-1.015279-3.87652-1.107577-5.168693-0.184596-6.460867 0.646087-0.922981 27.320236-45.687556 59.255376-99.497345 32.027438-53.809789 60.178357-100.881816 62.578107-104.666038 10.891175-16.890551 22.520735-45.687556 27.59713-68.577484 23.72061-106.235106-6.737761-192.626121-86.66791-246.251314-45.133768-30.273775-102.450884-50.948548-153.676326-55.378856-9.875896-0.830683-35.073276-1.015279-45.687556-0.276894zm55.840347 29.350794c44.764575 6.922357 89.898343 24.274399 126.079196 48.364201 31.104458 20.674773 51.410038 42.918614 65.900839 72.546302 5.999376 12.275646 11.998752 29.258496 11.998752 34.057997 0 5.445588-8.676021 14.767695-18.828811 20.213283-8.122232 4.33801-27.320236 1.569068-50.487057-7.199251-10.798877-4.153414-16.336763-7.199251-35.257872-19.290302-17.352042-11.075771-22.982225-14.02931-34.334891-17.998128-11.260367-4.061116-19.474898-5.630184-28.427813-5.630184-11.814156 0-22.151542 3.045837-48.641095 14.398503-15.136887 6.368568-31.93514 11.444964-40.611161 12.09105-9.137511 0.646087-17.90583-0.830683-33.319612-5.81478-12.552541-4.153414-18.090426-6.737761-39.595882-18.182724-26.212659-13.844714-58.609289-22.059244-82.514496-20.582475-8.491425 0.46149-22.336139 2.953539-31.658246 5.722482-1.199875 0.276894-2.122856 0.184596-2.122856-0.184596 0-1.384471 9.229809-16.429061 15.598378-25.289678 7.199251-10.15279 23.536014-27.412534 33.688804-35.627064 36.457747-29.443092 83.160582-47.718114 134.847515-52.979106 12.275646-1.199875 46.241345-0.369192 57.686309 1.384471zm-184.411591 127.83286c19.659494 4.061116 37.011536 10.706579 54.73277 21.043965 15.136887 8.768319 23.905206 12.829435 37.842218 17.536638 17.075147 5.630184 24.643591 6.922357 38.765199 6.460867 10.429685-0.46149 13.56782-0.922981 23.536014-3.87652 6.368568-1.93826 16.982849-5.722482 23.536014-8.399127 30.827563-12.829435 38.765199-15.044589 48.733393-13.383224 14.952291 2.39975 24.366697 6.553165 44.487681 19.659494 8.583723 5.630184 19.84409 12.460243 24.920485 15.044589 21.78235 11.352666 54.825068 19.567196 68.854378 17.075147 7.106953-1.199875 15.690676-5.168693 22.520735-10.337386 2.768943-2.122856 5.353289-3.599626 5.630184-3.322731 0.922981 0.830683 1.384471 26.858745 0.646087 32.950419l-0.738385 5.999376-6.460867 3.415029c-3.507328 1.93826-10.429685 4.799501-15.229185 6.368568-12.644839 4.153414-21.874648 4.061116-38.949796-0.46149-13.383224-3.415029-19.84409-5.907078-41.072652-15.598378-18.551917-8.491425-50.210163-20.582475-58.609289-22.243841-12.829435-2.676645-20.120984-1.661366-35.996257 5.076395-33.596506 14.02931-44.856874 16.982849-64.424069 16.982849-11.537262-0.092298-14.583099-0.369192-22.243841-2.492049-13.844714-3.87652-31.658246-10.614281-43.5647-16.521359-20.305581-10.245088-51.040846-19.3826-71.438724-21.32086-17.813532-1.661366-43.010912 1.569068-64.977858 8.491425-4.707203 1.476769-8.768319 2.492049-8.952915 2.307452-1.569068-1.476769 6.553165-41.811036 9.506704-47.625816 2.307452-4.33801 22.243841-12.183348 35.996257-14.02931 8.399127-1.107577 24.274399-0.553789 32.950419 1.199875zm5.353289 70.146551c14.490801 3.045837 38.949796 11.721858 52.425317 18.644215 17.259744 8.952915 36.273151 16.244464 52.240721 20.213283 15.782974 3.968818 39.780478 3.138135 57.040222-1.845962 7.106953-2.122856 30.366073-10.891175 38.580603-14.583099 9.506704-4.33801 14.583099-5.260991 21.966946-3.968818 7.937636 1.384471 38.303709 13.290925 59.716867 23.351418 44.672277 21.043965 71.16183 24.458995 98.75896 12.644839 4.984097-2.122856 4.891799-2.492049 2.307452 10.15279-5.445588 25.566572-14.675397 48.087307-27.781726 67.931397-8.491425 12.737137-27.227938 31.750544-38.672901 39.411286-16.521359 10.798877-38.488305 16.890551-73.376984 20.028686-13.844714 1.292173-56.486433 1.292173-61.101338 0.092298-2.030558-0.553789-15.413782-0.922981-31.196756-0.830683-15.321484 0.092298-31.842842-0.369192-36.919237-0.922981-5.076395-0.646087-18.551917-1.753664-29.99688-2.492049-25.289678-1.753664-33.965698-2.676645-48.91799-5.630184-21.043965-4.061116-37.28843-10.521983-49.748672-19.751792-7.014655-5.076395-21.597754-19.84409-27.874024-28.150919-17.90583-23.351418-32.212035-55.101962-38.119113-84.452756-3.138135-15.136887-4.984097-38.119113-3.415029-40.057373 3.230433-3.784222 24.089802-8.952915 49.010288-11.998752 6.645463-0.830683 26.581851 0.46149 35.073276 2.215154zm6.830059 203.978787c13.383224 4.614905 36.365449 8.583723 60.824444 10.521983 8.491425 0.646087 15.690676 1.384471 15.875272 1.661366 0.922981 0.830683 31.012159 110.757712 30.550669 111.219203-0.276894 0.276894-8.21453 0-17.628936-0.646087-9.506704-0.646087-19.936388-0.922981-23.351418-0.553789l-6.183972 0.553789-32.765823-61.101338c-17.998128-33.596506-32.858121-61.655127-33.042718-62.301213-0.369192-1.476769-0.553789-1.569068 5.722482 0.646087zm301.722468 7.106953c-1.384471 2.492049-17.998128 30.366073-36.826939 62.116617l-34.334891 57.686309-13.475522 0.276894c-12.367945 0.184596-13.475522 0.092298-13.475522-1.384471 0.092298-0.922981 4.522607-25.751168 10.060492-55.19426l9.875896-53.532894 7.383847-0.738385c32.765823-3.138135 49.102586-5.81478 63.131896-10.614281 10.706579-3.599626 10.614281-3.599626 7.660742 1.384471zm-149.338316 8.583723c23.351418 0.646087 42.549421 1.199875 42.641719 1.292173 0.184596 0.184596-18.090426 100.69722-19.659494 108.45026l-0.46149 2.215154-17.998128-0.46149c-9.968194-0.276894-18.459619-0.922981-18.828811-1.292173-0.646087-0.646087-27.504832-95.897719-31.012159-109.834731-0.553789-2.030558-0.369192-2.307452 1.107577-1.93826 1.015279 0.276894 20.859369 1.015279 44.210787 1.569068zm-54.455875 135.216707c13.198627 0.738385 27.320236 1.845962 31.381352 2.39975 4.891799 0.738385 22.151542 1.199875 50.85625 1.199875 36.919237 0.092298 43.749296 0.276894 45.133768 1.476769 1.476769 1.199875 1.569068 2.492049 1.107577 11.998752-1.107577 23.166822-10.983473 55.378856-19.013407 62.116617-1.569068 1.292173-4.522607 2.492049-6.830059 2.861241-5.168693 0.830683-31.750544-0.922981-42.734017-2.676645-5.630184-0.922981-12.09105-1.107577-21.505456-0.738385-10.614281 0.369192-16.798253 0.092298-29.166198-1.476769-19.013407-2.39975-24.551293-3.968818-29.073899-8.306828-4.522607-4.33801-6.645463-10.429685-9.599002-27.320236-4.614905-26.858745-4.891799-36.826939-0.922981-41.16495 1.845962-2.122856 0.184596-2.030558 30.366073-0.369192z" p-id="578" fill="#4DBBFF"></path></svg>